<svg width="31" height="32" viewBox="0 0 31 32" fill="none" xmlns="http://www.w3.org/2000/svg">
  <path
    d="M17.1092 0.917164V13.898C17.1092 14.4101 16.6942 14.8177 16.1961 14.8177H14.3701C13.8617 14.8177 13.457 14.3996 13.457 13.898V5.07687C13.457 4.41842 12.793 3.96901 12.1912 4.21985L0.570652 9.02755C0.228261 9.17387 0 9.50832 0 9.88457V31.0803C0 31.5924 0.41502 32 0.913043 32H12.5336C13.042 32 13.4466 31.5819 13.4466 31.0803V22.9803C13.4466 22.4682 13.8617 22.0606 14.3597 22.0606H16.1858C16.6942 22.0606 17.0988 22.4787 17.0988 22.9803V31.0803C17.0988 31.5924 17.5138 32 18.0119 32H29.6324C30.1408 32 30.5455 31.5819 30.5455 31.0803V5.73532C30.5455 5.35906 30.3172 5.02461 29.9748 4.87829L18.3542 0.0705906C17.7732 -0.180246 17.1092 0.26917 17.1092 0.917164Z"
    fill="#3ECFAF" />
</svg>