<svg width="125" height="25" viewBox="0 0 125 25" fill="none" xmlns="http://www.w3.org/2000/svg">
<path d="M13.0457 0.678148V10.2761C13.0457 10.6548 12.7292 10.9562 12.3495 10.9562H10.9571C10.5695 10.9562 10.2609 10.647 10.2609 10.2761V3.75382C10.2609 3.26697 9.75459 2.93467 9.29574 3.12014L0.43512 6.67494C0.174048 6.78313 0 7.03042 0 7.30862V22.9806C0 23.3593 0.316451 23.6607 0.696191 23.6607H9.55681C9.94446 23.6607 10.253 23.3516 10.253 22.9806V16.9916C10.253 16.6129 10.5695 16.3115 10.9492 16.3115H12.3416C12.7292 16.3115 13.0378 16.6206 13.0378 16.9916V22.9806C13.0378 23.3593 13.3542 23.6607 13.734 23.6607H22.5946C22.9822 23.6607 23.2908 23.3516 23.2908 22.9806V4.24067C23.2908 3.96247 23.1167 3.71518 22.8556 3.60699L13.995 0.0521945C13.552 -0.133273 13.0457 0.199023 13.0457 0.678148Z" fill="#3ECFAF"/>
<path d="M47.3646 20.6765V23.0798C47.3646 23.3812 47.1114 23.6285 46.8029 23.6285H35.9645C35.6559 23.6285 35.4028 23.3812 35.4028 23.0798V6.27182C35.4028 5.97043 35.6559 5.72314 35.9645 5.72314H38.7176C39.0261 5.72314 39.2793 5.97043 39.2793 6.27182V20.1201H46.8029C47.1114 20.1278 47.3646 20.3674 47.3646 20.6765Z" fill="#012D26"/>
<path d="M62.3642 20.8413V23.1441C62.3642 23.4146 62.1426 23.631 61.8657 23.631H60.5287C59.0572 23.631 58.2582 23.1519 58.0209 22.0391C57.9971 21.9309 57.8468 21.9 57.7835 21.9927C57.0715 23.1596 55.6 23.9092 53.5906 23.9092C50.6555 23.9092 48.7963 22.325 48.7963 19.8675C48.7963 17.3637 50.7346 15.8259 54.4529 15.8259H57.4908V15.4395C57.4908 14.0099 56.7551 13.3453 55.2124 13.3453C54.0652 13.3453 52.9972 13.7394 52.1191 14.4735C51.9134 14.6435 51.6048 14.6513 51.415 14.4581L49.9355 12.9357C49.7536 12.7502 49.7457 12.4488 49.9276 12.2711C51.233 10.9883 53.2345 10.231 55.5051 10.231C59.0968 10.231 61.0825 12.1243 61.0825 15.2927V20.2771C61.0825 20.7099 61.217 20.8413 61.5809 20.8413H62.3642ZM57.4908 18.5384V18.1288H54.8247C53.1713 18.1288 52.4672 18.6388 52.4672 19.6666C52.4672 20.6635 53.1475 21.2276 54.4845 21.2276C56.312 21.2276 57.4908 20.1535 57.4908 18.5384Z" fill="#012D26"/>
<path d="M80.3004 6.27231V23.0803C80.3004 23.3817 80.0472 23.629 79.7387 23.629H77.0093C76.7008 23.629 76.4476 23.3817 76.4476 23.0803V16.2103H68.8923C68.5838 16.2103 68.3306 16.4576 68.3306 16.759V23.0803C68.3306 23.3817 68.0775 23.629 67.769 23.629H65.0158C64.7073 23.629 64.4541 23.3817 64.4541 23.0803V6.27231C64.4541 5.97092 64.7073 5.72363 65.0158 5.72363H67.769C68.0775 5.72363 68.3306 5.97092 68.3306 6.27231V12.7328H75.8859C76.1944 12.7328 76.4476 12.4855 76.4476 12.1841V6.27231C76.4476 5.97092 76.7008 5.72363 77.0093 5.72363H79.7387C80.0551 5.72363 80.3004 5.97092 80.3004 6.27231Z" fill="#012D26"/>
<path d="M110.541 11.081V23.1364C110.541 23.4069 110.311 23.631 110.034 23.631H107.408C107.131 23.631 106.902 23.4069 106.902 23.1364V21.7145C106.166 23.0978 104.568 23.9942 102.606 23.9942C99.8052 23.9942 98.2309 22.2323 98.2309 19.1334V11.081C98.2309 10.8105 98.4603 10.5864 98.7372 10.5864H101.443C101.72 10.5864 101.949 10.8105 101.949 11.081V18.1829C101.949 19.8675 102.503 20.6867 104.046 20.6867C105.747 20.6867 106.823 19.713 106.823 17.951V11.081C106.823 10.8105 107.052 10.5864 107.329 10.5864H110.034C110.319 10.5864 110.541 10.8105 110.541 11.081Z" fill="#012D26"/>
<path d="M112.956 21.2973L114.135 19.744C114.317 19.5044 114.665 19.4503 114.903 19.6358C115.963 20.455 117.434 20.9727 118.89 20.9727C120.203 20.9727 120.907 20.54 120.907 19.8754C120.907 19.3112 120.433 18.9558 119.309 18.7007L117.086 18.1907C114.286 17.5261 113.186 16.2433 113.186 14.4582C113.186 11.9775 115.282 10.2388 118.819 10.2388C120.939 10.2388 122.806 10.8647 124.04 11.8848C124.262 12.0703 124.309 12.3871 124.135 12.6189L122.933 14.2186C122.759 14.4504 122.426 14.4968 122.181 14.3345C121.042 13.6004 119.887 13.2835 118.771 13.2835C117.49 13.2835 116.888 13.6931 116.888 14.3345C116.888 14.7982 117.284 15.1305 118.463 15.3855L120.765 15.9187C123.621 16.5833 124.641 17.8661 124.641 19.6822C124.641 22.3174 122.521 24.002 118.882 24.002C116.461 24.002 114.357 23.2602 113.02 22.0005C112.806 21.8073 112.79 21.5059 112.956 21.2973Z" fill="#012D26"/>
<path d="M96.327 20.8413V23.1441C96.327 23.4146 96.1055 23.631 95.8286 23.631H94.4916C93.0201 23.631 92.2211 23.1519 91.9838 22.0391C91.96 21.9309 91.8097 21.9 91.7464 21.9927C91.0344 23.1596 89.5629 23.9092 87.5534 23.9092C84.6184 23.9092 82.7592 22.325 82.7592 19.8675C82.7592 17.3637 84.6975 15.8259 88.4158 15.8259H91.4537V15.4395C91.4537 14.0099 90.718 13.3453 89.1753 13.3453C88.0281 13.3453 86.9601 13.7394 86.0819 14.4735C85.8763 14.6435 85.5677 14.6513 85.3778 14.4581L83.8984 12.9357C83.7165 12.7502 83.7086 12.4488 83.8905 12.2711C85.1959 10.9883 87.1974 10.231 89.468 10.231C93.0597 10.231 95.0454 12.1243 95.0454 15.2927V20.2771C95.0454 20.7099 95.1799 20.8413 95.5438 20.8413H96.327ZM91.4537 18.5384V18.1288H88.7797C87.1262 18.1288 86.4221 18.6388 86.4221 19.6666C86.4221 20.6635 87.1025 21.2276 88.4395 21.2276C90.2749 21.2276 91.4537 20.1535 91.4537 18.5384Z" fill="#012D26"/>
</svg>
